<!-- icon666.com - MILLIONS vector ICONS FREE --><svg id="expand_all" viewBox="0 0 32 32" xmlns="http://www.w3.org/2000/svg" data-name="expand all"><path d="m28.707 14.58-4.457-4.457v-5.836a1 1 0 1 0 -2 0v3.836l-4.817-4.817a2.029 2.029 0 0 0 -2.866 0l-11.274 11.274a1 1 0 0 0 1.414 1.414l1.293-1.289v10.484a4.1 4.1 0 0 0 4.1 4.1h11.8a4.1 4.1 0 0 0 4.1-4.1v-10.489l1.293 1.293a1 1 0 0 0 1.414-1.414zm-14.413 12.707a.294.294 0 0 1 -.294-.294v-6.412a.294.294 0 0 1 .294-.294h3.412a.294.294 0 0 1 .294.294v6.412a.294.294 0 0 1 -.294.294zm9.706-2.098a2.1 2.1 0 0 1 -2.1 2.1h-1.93a2.2 2.2 0 0 0 .03-.294v-6.414a2.3 2.3 0 0 0 -2.294-2.294h-3.412a2.3 2.3 0 0 0 -2.294 2.294v6.412a2.2 2.2 0 0 0 .03.294h-1.93a2.1 2.1 0 0 1 -2.1-2.1v-12.475l8.019-7.992 7.981 7.98z"/></svg>